<svg xmlns="http://www.w3.org/2000/svg" viewBox="0 0 847.06 345.91"><defs><style>.cls-1{fill:#18c0ff;}.cls-2{fill:#333;}.cls-3{fill:#fdb400;}</style></defs><title>Asset 6</title><g id="Layer_2" data-name="Layer 2"><g id="Layer_1-2" data-name="Layer 1"><path class="cls-1" d="M134.86,88.87A32.78,32.78,0,0,1,120,92.15c0-1.8.35-1.85,2.76-1.78A36.89,36.89,0,0,0,134.86,88.87Z"/><path class="cls-1" d="M231.73,121.23a5.2,5.2,0,0,1-.72,0l-6,0C227.53,121.21,229.83,121.21,231.73,121.23Z"/><path class="cls-1" d="M233.41,118.87c0,1.45-.38,2.14-1.5,2.34,1.42-.36,1.48-5.17,1.53-6.66C233.45,116,233.45,117.42,233.41,118.87Z"/><path class="cls-1" d="M225,121.23c-7,0-15.49.17-20.81.18a8.34,8.34,0,0,1,1.8-.17C212.33,121.23,218.67,121.2,225,121.23Z"/><path class="cls-1" d="M233.44,114.43c0-.68,0-1.35-.05-2C233.44,113.06,233.45,113.74,233.44,114.43Z"/><path class="cls-1" d="M109.9,110.61l.11.11v-.06Z"/><path class="cls-1" d="M110,110.66v.06l-.11-.11Z"/><path class="cls-1" d="M119.94,29c0-7.52-.08-15-.06-22.55,0-2,.26-4,.44-6.44,3.36.25,6.75.35,10.1.77q3,.38,5.94.89a114.13,114.13,0,0,1,55.77,26.1q4.91,4.2,9.5,9a114.78,114.78,0,0,1,26,43.34,112.13,112.13,0,0,1,5.75,32.28h0c0,.68,0,1.35.05,2v.12c-.05,1.49-.11,6.3-1.53,6.66h-.18c-1.9,0-4.2,0-6.7,0h0c-6.34,0-12.68,0-19,0a8.34,8.34,0,0,0-1.8.17h0c-3.37,0-6-1-6,2.43a102.58,102.58,0,0,1-.33,10.82,16.82,16.82,0,0,1-2.25,6.6c-4.69,7.75-12.62,9.31-19.06,7.58-7.41-2-12.36-8.86-12.32-16.9v-.28l-1.08-.56a8.71,8.71,0,0,0-2-.77,4.36,4.36,0,0,0-4.37,1.34,9.11,9.11,0,0,0-1.39,2,118.24,118.24,0,0,1-6,10.93,19.58,19.58,0,0,1-5.78,5.58c-8.9,5.47-17.86,2.9-23.55-2.27-6.55-5.95-8-15.6-3.72-23.83.18-.35.36-.71.55-1.06,1-2,2.06-3.94,3.07-5.92.22-.42.43-.84.64-1.27,1.37-2.69,1.16-4.88-.61-6.55,0-1.45,0-2.89,0-4.34L120,93.05c0-.34,0-.64,0-.9a32.78,32.78,0,0,0,14.88-3.28h0A27.51,27.51,0,0,0,146,82.22C155,73.59,157.6,63,153.81,51.31c-.24-.74-.5-1.45-.78-2.15s-.54-1.31-.84-1.93A27.62,27.62,0,0,0,149,42.05h0c-4.39-5.73-10.77-9.29-18.83-10.63-.55-.09-1.1-.16-1.66-.22-2.13-.2-4.31-.17-6.46-.17C120.58,31,119.94,30.6,119.94,29Z"/><path class="cls-1" d="M233.38,202.19V140c0-1.13,0-2.28-.07-3.4a5.43,5.43,0,0,0-7.63-4.68,17.28,17.28,0,0,0-3,1.67q-25.09,16.09-50.19,32.19-7.44-7.74-14.76-15.57c-1.08-1.16-1.79-1.19-3-.12-2.69,2.34-5.33,4.92-8.43,6.57-9.37,5-18.93,4.7-27.81-1.06-9-5.87-13.32-14.54-12.62-25.38a25.55,25.55,0,0,1,2.21-8.94,26.79,26.79,0,0,1,1.93-3.57q0-8.91,0-17.81h0l-.11-.11.11,0q0-7,0-14.07c0-3.58,1.91-5.46,5.5-5.49,3.22,0,6.45.18,9.66-.06a29.83,29.83,0,0,0,7.75-1.45,19.34,19.34,0,0,0,12.42-19.3c0-.33,0-.67-.08-1-.83-8.39-7.74-15.84-16.2-16.93-4.17-.54-8.44-.32-12.66-.38-4.74-.08-6.41-1.7-6.4-6.4q0-16,.05-32c0-1.74-.34-2.44-2.35-2.29a116.06,116.06,0,0,0-77.85,38.4,116.78,116.78,0,0,0-28,56.46l-1.4,9.47C.3,109.54.19,114.33,0,119.11c-.06,1.67.64,2.18,2.26,2.16,4.92-.08,9.85,0,14.77,0,2.61,0,2.66,0,2.59-2.64-.13-5.5.45-10.89,3-15.84C28.06,92.14,36.73,86.2,48.74,86c12.21-.19,21.27,5.39,27,16.23a25.63,25.63,0,0,1,2,5.12h0c-1,1-2,1.92-3,2.89-2.7,2.56-5.23,2.53-7.81-.14-2.21-2.28-4.34-4.63-6.58-6.89-6.6-6.66-17.3-7.41-24.08-1.74-7.93,6.63-9.52,17-3.56,25,2.41,3.24,5.45,6,8.15,9,2.13,2.38,2,4.93-.34,7.14l-6.25,5.94c-.38-.24-.76-.48-1.13-.73-7.9-5.06-15.77-10.19-23.74-15.15-4.86-3-9.16-.58-9.3,5.11,0,.41,0,.82,0,1.24,0,42,0,84-.07,126,0,3.95,1.56,6.25,4.72,8.26q36.83,23.44,73.54,47a4.69,4.69,0,0,1,2.39,4.57c-.1,5.77.06,11.55-.07,17.33-.07,2.71,1.06,3.81,3.65,3.64.31,0,.62,0,.93,0h63.16c4.28,0,4.5-.26,4.51-4.6,0-5.36.14-10.73-.06-16.09-.09-2.54.94-3.91,3-5.2,24.44-15.6,48.8-31.3,73.25-46.88a8.51,8.51,0,0,0,4.45-8.09C233.3,244.09,233.38,223.14,233.38,202.19ZM110,110.66v.06l-.11-.11Zm-13.24,71.6c13.43-.43,25.8,2.14,37,8.42l-12.58,8.09a7.35,7.35,0,0,1-8.86,0L86.42,182.11Q91.54,182.43,96.77,182.26Zm29.8,108.21c-1.76,9-3.79,17.94-5.72,26.91-.46,2.14-1.18,3.72-4,3.76s-3.82-1.45-4.28-3.79q-3.75-19.1-7.45-38.21a32.93,32.93,0,0,1-.24-4.15h23.92C128.06,280.35,127.55,285.46,126.57,290.47ZM205,259.41c-16.31,10.31-32.49,20.82-48.77,31.16a8.23,8.23,0,0,0-4.21,7.67c.08,6.4-.06,12.8.06,19.19,0,2.6-.71,3.75-3.51,3.67-5.56-.16-11.14,0-16.71-.06-.89,0-1.78-.16-3-.28,1.25-5.5,2.61-10.66,3.58-15.9,1.56-8.41,2.94-16.85,4.25-25.31.75-4.76.62-4.78,5.51-4.79h7.74c8.5.05,14.8-3.9,18.39-11.35A18.73,18.73,0,0,0,166,242.69c-5.28-6.64-12.39-9-20.75-7s-14.39,10-14.93,19.84c-.16,2.77-.38,5.54-.52,8.32-.1,1.9-1,2.73-2.92,2.71-6.81-.07-13.62-.05-20.43,0-1.75,0-2.73-.62-2.82-2.45-.16-2.88-.39-5.75-.56-8.63-.7-12.08-9.31-20.68-20.51-20.46a19.71,19.71,0,0,0-19.25,20.1,19.51,19.51,0,0,0,19.32,19.65c3,0,6,0,9,0,4.42,0,4.32,0,5,4.24q2.84,16.46,5.84,32.88c.53,2.9,1.38,5.74,2.17,8.9-1.34.11-2.24.26-3.14.26-5.57,0-11.14-.07-16.71.06-2.54,0-3.49-.85-3.45-3.41.12-6.29-.08-12.59.08-18.88.1-3.93-1.45-6.52-4.79-8.62-16.39-10.36-32.67-20.91-49-31.32a6.07,6.07,0,0,1-3.1-5.61c0-23.94,0-47.87,0-71.81,0-5.35,3.95-7.31,8.69-4.29q21.92,14,43.77,28.07c11.71,7.52,23.47,15,35.13,22.61,3.19,2.09,5.93,2,9.11,0q38.49-24.84,77.07-49.53c.52-.33,1-.66,1.56-1,2-1.32,4-2.18,6.37-1s2.58,3.47,2.58,5.83c0,23.42-.06,46.85,0,70.27A7.44,7.44,0,0,1,205,259.41Zm-66.32-1c.17-1.43.28-2.86.43-4.3a11.4,11.4,0,0,1,22.7-.65,11.4,11.4,0,0,1-9,12.56,58.66,58.66,0,0,1-7,.67C137.66,266.53,137.67,266.53,138.65,258.44ZM91.8,266.55c-1.33-.1-2.67,0-4,0a1.49,1.49,0,0,0,0,.21,59.45,59.45,0,0,1-7.34-.76,11.36,11.36,0,0,1-8.77-12.44,11.54,11.54,0,0,1,10.83-10.09,11.36,11.36,0,0,1,11.72,9.73c.5,3.35.5,6.77.81,10.15C95.24,265.78,94.18,266.73,91.8,266.55Z"/><path class="cls-2" d="M351.81,130.07,344,138a.36.36,0,0,0-.11.26v63.41a.36.36,0,0,0,.11.26l6.87,6.53a.36.36,0,0,1-.25.62H324a.36.36,0,0,1-.24-.64l7.74-6.51a.37.37,0,0,0,.13-.28V162.09a.36.36,0,0,0-.7-.12L312.06,213.9a.37.37,0,0,1-.34.24h-5.43a.37.37,0,0,1-.35-.26l-.28-.95a.36.36,0,0,1,.34-.47h4.66a.35.35,0,0,0,.34-.24l20.62-57.39a.51.51,0,0,0,0-.13v-7.36a.36.36,0,0,0-.7-.13l-22.29,61.54a.38.38,0,0,1-.34.24h-3.83a.37.37,0,0,1-.35-.25L287.92,161a.36.36,0,0,0-.7.11v30.63q0,6.58.87,9.31a15.94,15.94,0,0,0,4.08,6l0,0,5.11,6.47a.36.36,0,0,1-.28.59H265.51a.37.37,0,0,1-.3-.16l-.63-1a.36.36,0,0,1,.3-.56H294a.36.36,0,0,0,.3-.56l-1.81-2.69a.35.35,0,0,0-.3-.16h-26a.36.36,0,0,1-.17-.68h0q6.88-3.78,9.09-7.66t2.2-12.26V137.3a.36.36,0,0,0-.11-.26l-7.41-7a.37.37,0,0,1,.25-.63h30.22a.37.37,0,0,1,.24.64l-8.12,7.33a.36.36,0,0,0-.1.39l17.17,50.79a.36.36,0,0,0,.68,0l1.81-4.38a.39.39,0,0,0,0-.26l-15.75-45.65a.36.36,0,0,1,.12-.41l7.69-5.69a.35.35,0,0,1,.44,0l.72.57a.37.37,0,0,1,0,.58l-7.14,5a.35.35,0,0,0-.14.41l14.35,42a.36.36,0,0,0,.68,0l15.58-43.06a.34.34,0,0,0-.08-.37l-6.85-7.36a.37.37,0,0,1,.27-.61h29.76A.36.36,0,0,1,351.81,130.07ZM282.9,146.19a.37.37,0,0,0-.71.12V188.7q0,10.25,2,14.08,1.8,3.56,7.18,5.31a.36.36,0,0,0,.43-.53l0-.06a.35.35,0,0,0-.1-.11q-6-4.21-6-12.11v-41.2a.25.25,0,0,0,0-.12Zm72.61-11.62L349,139.21a.36.36,0,0,0-.16.29v62.22a.42.42,0,0,0,.09.24l10.18,11.58a.36.36,0,0,1-.27.6H327a.36.36,0,0,1-.32-.2l-.5-.95a.36.36,0,0,1,.32-.53h28.63a.36.36,0,0,0,.27-.6l-8-9a.38.38,0,0,1-.09-.24V138.45a.35.35,0,0,1,.16-.29l6.94-4.77a.36.36,0,0,1,.43,0l.73.59A.36.36,0,0,1,355.51,134.57Z"/><path class="cls-2" d="M418.35,130.46l-5.33,6a.62.62,0,0,0-.11.61l9.8,26.06a.6.6,0,0,0,.86.32l1.41-.78a.61.61,0,0,0,.28-.74l-8.88-23.62a.64.64,0,0,1,.11-.61l6.06-7a.6.6,0,0,1,.69-.16l.44.19a.61.61,0,0,1,.23.95l-5.5,6.36a.59.59,0,0,0-.1.6l8.27,22.05a.61.61,0,0,0,.94.26l.22-.18,2-1.74c.68-.54,1.22-1,1.62-1.36a.6.6,0,0,1,1,.29,43.33,43.33,0,0,0,4.15,10.65.6.6,0,0,1-.56.9c-.63,0-1.13-.06-1.48-.06q-5.44,0-8.19,1.59a.6.6,0,0,0-.27.73l11,29.84a.6.6,0,0,0,.2.27l7.77,6a.6.6,0,0,1-.37,1.08H416.73a.6.6,0,0,1-.38-1.06l7-5.86a.61.61,0,0,0,.18-.68l-6.4-16.83a.61.61,0,0,0-1-.21,68.47,68.47,0,0,0-9.59,12,.62.62,0,0,1-.67.28l-.2-.06a.61.61,0,0,1-.36-.91,82.31,82.31,0,0,1,10.47-12.86l0,0,.25-.32a.59.59,0,0,0,.08-.61l-.71-1.65a.6.6,0,0,0-.94-.22A54.76,54.76,0,0,0,403.37,193a.61.61,0,0,1-1,0l-.6-1q-3.23-5.15-8.25-11.73h0a.61.61,0,0,0-1,.15q-4.38,10-4.38,16.36a14.79,14.79,0,0,0,1.34,6.6,61.09,61.09,0,0,0,6.42,9l.59.76a.61.61,0,0,1-.47,1H364a.58.58,0,0,1-.48-.25l-.35-.47a.6.6,0,0,1,.49-1h29.11a.6.6,0,0,0,.47-1l-.26-.32a40,40,0,0,1-5.36-7.72,15.37,15.37,0,0,1-1.27-6.49q0-6.22,5-18.49a.6.6,0,0,0-.13-.65l-1.8-1.89a.6.6,0,0,0-1,.2c-.48,1.26-1,2.91-1.7,4.95l-2.05,6.33a28,28,0,0,0-1.67,8.44,12.66,12.66,0,0,0,1.17,5.77,30.74,30.74,0,0,0,5,6.26l.15.16a.6.6,0,0,1-.43,1H361.58a.6.6,0,0,1-.31-1.12,36.34,36.34,0,0,0,12-11.23q5.18-7.74,10.26-23.94l.14-.49a.59.59,0,0,0-.2-.63,16.57,16.57,0,0,0-8.22-3,.61.61,0,0,1-.43-.93,43.91,43.91,0,0,0,4.44-8.92.6.6,0,0,1,1-.24l.38.36,2.79,2.61a30.42,30.42,0,0,0,2.78,2.33.61.61,0,0,0,.92-.26l.66-1.6a.6.6,0,0,0-.17-.69l-.41-.34q-3.09-2.73-5.21-4.41l-.09-.07a.6.6,0,0,1-.12-.83l.3-.42a.61.61,0,0,1,.83-.15,46.67,46.67,0,0,1,5.18,4.09.6.6,0,0,0,1-.24l8-22a.6.6,0,0,0-.13-.61l-5.38-5.79a.61.61,0,0,1,.44-1H417.9A.61.61,0,0,1,418.35,130.46Zm-17.8,13.23-9.16,24.18a.6.6,0,0,0,.13.63,86.85,86.85,0,0,1,7.86,9.28l2.84,3.95,0,0s.09.11.17.23a.61.61,0,0,0,.94,0l.11-.14.87-1.06c.08-.11.21-.26.38-.46a.62.62,0,0,0,0-.73,65.35,65.35,0,0,0-9.57-11.44.57.57,0,0,1-.15-.64l7.72-20.39a.61.61,0,0,0,0-.42l-1.1-3A.6.6,0,0,0,400.55,143.69Zm2.79,7.18L397.22,167a.59.59,0,0,0,.11.61l.36.44.05.07,2.51,2.82a60.93,60.93,0,0,1,5.21,6.95l.17.25a.6.6,0,0,0,1,0,56.3,56.3,0,0,1,5.51-5.73.59.59,0,0,0,.16-.65l-7.8-20.95A.6.6,0,0,0,403.34,150.87Zm34.32,9.34q1.33,5.25,6.18,14a.6.6,0,0,1-.59.89l-.38,0-5-.44c-2.28-.21-3.93-.31-5-.31l-.41,0a.6.6,0,0,0-.54.81l10,26.58a.55.55,0,0,0,.17.23l12.52,11.07a.6.6,0,0,1-.39,1.06h-34a.59.59,0,0,1-.49-.26l-.33-.47a.6.6,0,0,1,.49-.95h30.19a.6.6,0,0,0,.4-1.05l-9.86-8.71a.66.66,0,0,1-.17-.24L429.71,174a.6.6,0,0,1,.45-.8,19.48,19.48,0,0,1,4.15-.4,53.61,53.61,0,0,1,6.28.41.6.6,0,0,0,.6-.89L441,172a57.14,57.14,0,0,1-5-11.77.61.61,0,0,1,.9-.67l.45.28A.61.61,0,0,1,437.66,160.21Z"/><path class="cls-2" d="M461.09,129.45H487a.64.64,0,0,1,.44,1.1l-7.12,7a.64.64,0,0,0-.19.46v26a.63.63,0,0,0,.54.63c.64.1,1.34.18,2.11.24a.65.65,0,0,0,.7-.64v-25.6a.64.64,0,0,1,.19-.45l6.14-6.09a.64.64,0,0,1,.88,0l.29.26a.64.64,0,0,1,0,.93l-5.72,5.66a.66.66,0,0,0-.19.46v25a.63.63,0,0,0,.58.63l1.47.14q4.77.44,9.24.43A87.2,87.2,0,0,0,507,165a.64.64,0,0,0,.56-.63v-27.7a.64.64,0,0,0-.21-.47l-6.15-5.64a.65.65,0,0,1,.43-1.12H527a.65.65,0,0,1,.45,1.11l-7.23,7a.64.64,0,0,0-.19.46v64.08a.65.65,0,0,0,.21.48l6,5.39a.64.64,0,0,1-.42,1.12H500.75a.64.64,0,0,1-.41-1.13l7-5.94a.65.65,0,0,0,.23-.48V176.29a.64.64,0,0,0-.78-.62,46.9,46.9,0,0,1-10,1.06q-5.2,0-10.79-.56h-.18a.64.64,0,0,0-.69.63v25.32a.65.65,0,0,0,.16.42l9.16,10.55a.64.64,0,0,1-.49,1.06H463.56a.65.65,0,0,1-.47-.2l-.38-.39a.64.64,0,0,1,.46-1.09H490.5a.64.64,0,0,0,.47-1.07l-7.29-8a.63.63,0,0,1-.17-.43v-27.6a.64.64,0,0,1,.68-.64l1.12.07q8.19.63,11.85.63a30.44,30.44,0,0,0,9.93-1.47.62.62,0,0,0,.43-.6v-1a.65.65,0,0,0-.73-.64,95.66,95.66,0,0,1-12.86.77q-4.15,0-6.08-.19l-6.25-.56h0c-.16,0-.4,0-.72-.07a.64.64,0,0,0-.69.63v29.79a.64.64,0,0,0,.22.49l6.38,5.38a.64.64,0,0,1-.41,1.13H461.14a.64.64,0,0,1-.42-1.12l6.81-6a.62.62,0,0,0,.22-.48V175.34a.64.64,0,0,0-.68-.64,9.75,9.75,0,0,0-7.32,3.68.65.65,0,0,1-.77.18l-.1-.05a.64.64,0,0,1-.2-1,13,13,0,0,1,8.49-4.32.65.65,0,0,0,.58-.64v-1.06a.64.64,0,0,0-.67-.64,13,13,0,0,0-10,4.81.63.63,0,0,1-.84.12h0a.62.62,0,0,1-.23-.78q3.56-8.22,11.19-9.95a.64.64,0,0,0,.51-.63V137.31a.67.67,0,0,0-.21-.48l-6.88-6.26A.65.65,0,0,1,461.09,129.45Zm69.72,3.87-5.73,5.56a.66.66,0,0,0-.19.46v62.77a.61.61,0,0,0,.16.42l9.21,10.55a.64.64,0,0,1-.48,1.06H503.27a.64.64,0,0,1-.47-.21l-.37-.39a.64.64,0,0,1,.47-1.08h27.33a.64.64,0,0,0,.48-1.06l-7.21-8.12a.62.62,0,0,1-.16-.43V138.72a.62.62,0,0,1,.19-.46l6.18-6.12a.63.63,0,0,1,.95.07l.21.27A.63.63,0,0,1,530.81,133.32Z"/><path class="cls-2" d="M539,129.45h27.26a.48.48,0,0,1,.33.82l-7.76,7.54a.5.5,0,0,0-.14.35V203.8a.47.47,0,0,0,.47.47h0l2.2.18h.1a.47.47,0,0,0,.47-.48V138.77a.44.44,0,0,1,.14-.33l6.14-6.2a.48.48,0,0,1,.75.08l.34.54a.48.48,0,0,1-.06.59l-5.62,5.73a.46.46,0,0,0-.13.33V204a.48.48,0,0,0,.43.48c1.71.14,3.34.21,4.9.21q9.87,0,14.92-4.38,4.62-4,6.46-12.7a.48.48,0,0,1,.92-.06q5.19,14.6,10.64,20.69a.47.47,0,0,1-.35.79H539.06a.48.48,0,0,1-.3-.85l7.36-6a.47.47,0,0,0,.17-.37V137.54a.47.47,0,0,0-.15-.35l-7.51-6.91A.48.48,0,0,1,539,129.45Zm69.49,79.38-2.52,5a.47.47,0,0,1-.43.27H541.23a.46.46,0,0,1-.35-.16l-.67-.72a.48.48,0,0,1,.35-.8H604.8a.49.49,0,0,0,.43-.27l1.55-3.37a.48.48,0,0,0-.06-.49A70.94,70.94,0,0,1,596,189.88l-.24-.68,1.79.67a.49.49,0,0,1,.27.26l.36.87a91.7,91.7,0,0,0,9.92,16.93l.31.39A.49.49,0,0,1,608.44,208.83Z"/><path class="cls-2" d="M676.77,130.84l-9.09,7.25a.79.79,0,0,0-.29.61v39.7a124.16,124.16,0,0,1-.71,15.89,18.92,18.92,0,0,1-2.83,7.94q-5.33,7.94-20.72,7.94-16.25,0-22.7-7.94-5.16-6.27-5.15-24V137.37a.8.8,0,0,0-.26-.58l-6.67-6a.78.78,0,0,1,.52-1.36h25.35a.78.78,0,0,1,.54,1.34l-6.84,6.69a.75.75,0,0,0-.23.55v40.25l.12,9.55q0,9.25,3.85,13.12t13,3.88q10.05,0,13.84-5.89,3-4.78,3-20.47l.24-39.8a.79.79,0,0,0-.25-.58l-8-7.29a.78.78,0,0,1,.52-1.35h22.22A.78.78,0,0,1,676.77,130.84Zm3.28,3.29-7.6,6.32a.78.78,0,0,0-.28.6v38.16q0,18.91-3,24.69-6.08,11.67-23.76,11.66-15.27,0-23-7.63l.48.24,0,0,2.15,1.23q7.64,4.47,19.61,4.47,17.12,0,22.7-10.8,3-5.82,3-23.45V140.31a.75.75,0,0,1,.28-.6L679,132.9a.78.78,0,0,1,1.13.14l0,.05A.78.78,0,0,1,680.05,134.13Zm-41.77-.88-5.41,5.47a.8.8,0,0,0-.22.55V185l-.06,4.18a.68.68,0,0,0,0,.2l1.87,7.66a.67.67,0,0,0,.1.23,25.84,25.84,0,0,0,5.13,5.43.73.73,0,0,1,.25.42l.07.31a13,13,0,0,1-7.2-6.15q-2-4-2-12.46V138.65a.75.75,0,0,1,.23-.55l6.11-5.95a.77.77,0,0,1,1.19.13h0A.77.77,0,0,1,638.28,133.25Z"/><path class="cls-2" d="M685.67,129.45h27.26a.48.48,0,0,1,.33.82l-7.76,7.54a.5.5,0,0,0-.14.35V203.8a.47.47,0,0,0,.47.47h0l2.2.18h.1a.48.48,0,0,0,.48-.48V138.77a.47.47,0,0,1,.13-.33l6.15-6.2a.47.47,0,0,1,.74.08l.34.54a.48.48,0,0,1-.06.59l-5.62,5.73a.51.51,0,0,0-.13.33V204a.48.48,0,0,0,.44.48q2.55.21,4.89.21,9.87,0,14.92-4.38,4.62-4,6.47-12.7a.47.47,0,0,1,.91-.06q5.19,14.6,10.64,20.69a.47.47,0,0,1-.35.79H685.78a.48.48,0,0,1-.3-.85l7.36-6a.47.47,0,0,0,.17-.37V137.54a.47.47,0,0,0-.15-.35l-7.51-6.91A.48.48,0,0,1,685.67,129.45Zm69.49,79.38-2.52,5a.47.47,0,0,1-.43.27H688a.46.46,0,0,1-.35-.16l-.67-.72a.48.48,0,0,1,.35-.8h64.24a.48.48,0,0,0,.43-.27l1.55-3.37a.46.46,0,0,0-.06-.49,70.94,70.94,0,0,1-10.74-18.45l-.24-.68,1.79.67a.49.49,0,0,1,.27.26l.36.87a91.7,91.7,0,0,0,9.92,16.93l.31.39A.47.47,0,0,1,755.16,208.83Z"/><path class="cls-2" d="M810.56,130.46l-5.33,6a.6.6,0,0,0-.11.61l9.8,26.06a.6.6,0,0,0,.86.32l1.41-.78a.6.6,0,0,0,.27-.74l-8.87-23.62a.6.6,0,0,1,.11-.6l6.06-7a.6.6,0,0,1,.69-.16l.44.19a.6.6,0,0,1,.22.95l-5.49,6.36a.59.59,0,0,0-.1.6l8.27,22.05a.61.61,0,0,0,.94.26l.21-.18,2-1.74c.68-.54,1.22-1,1.62-1.36a.6.6,0,0,1,1,.29,42.94,42.94,0,0,0,4.15,10.65.61.61,0,0,1-.56.9c-.64,0-1.13-.06-1.48-.06q-5.44,0-8.19,1.59a.6.6,0,0,0-.27.73l11,29.84a.6.6,0,0,0,.2.27l7.77,6a.6.6,0,0,1-.37,1.08H808.94a.6.6,0,0,1-.39-1.06l7-5.86a.61.61,0,0,0,.18-.68l-6.4-16.83a.61.61,0,0,0-1-.21,68.47,68.47,0,0,0-9.59,12,.62.62,0,0,1-.67.28l-.2-.06a.61.61,0,0,1-.36-.91A82.31,82.31,0,0,1,808,182.89l0,0,.25-.32a.59.59,0,0,0,.08-.61l-.71-1.65a.61.61,0,0,0-1-.22A55.23,55.23,0,0,0,795.57,193a.6.6,0,0,1-1,0l-.6-1q-3.23-5.15-8.25-11.73h0a.61.61,0,0,0-1,.15q-4.38,10-4.38,16.36a14.79,14.79,0,0,0,1.33,6.6,60.61,60.61,0,0,0,6.43,9l.59.76a.61.61,0,0,1-.47,1h-32a.58.58,0,0,1-.48-.25l-.35-.47a.6.6,0,0,1,.48-1H785a.6.6,0,0,0,.47-1l-.26-.32a40,40,0,0,1-5.36-7.72,15.37,15.37,0,0,1-1.28-6.49q0-6.22,5-18.49a.6.6,0,0,0-.12-.65l-1.8-1.89a.6.6,0,0,0-1,.2q-.72,1.89-1.7,4.95l-2.05,6.33a28,28,0,0,0-1.68,8.44,12.66,12.66,0,0,0,1.18,5.77,30.74,30.74,0,0,0,5,6.26l.15.16a.6.6,0,0,1-.43,1H753.79a.6.6,0,0,1-.31-1.12,36.21,36.21,0,0,0,12-11.23q5.19-7.74,10.27-23.94l.14-.49a.59.59,0,0,0-.2-.63,16.65,16.65,0,0,0-8.22-3,.61.61,0,0,1-.43-.93,44.43,44.43,0,0,0,4.44-8.92.6.6,0,0,1,1-.24l.38.36,2.79,2.61a29.12,29.12,0,0,0,2.78,2.33.61.61,0,0,0,.92-.26l.66-1.6a.6.6,0,0,0-.17-.69l-.41-.34c-2.07-1.82-3.8-3.29-5.21-4.41l-.1-.07a.6.6,0,0,1-.11-.83l.3-.42a.6.6,0,0,1,.83-.15,46.67,46.67,0,0,1,5.18,4.09.6.6,0,0,0,1-.24l8-22a.59.59,0,0,0-.12-.61l-5.38-5.79a.61.61,0,0,1,.44-1h25.88A.61.61,0,0,1,810.56,130.46Zm-17.81,13.23-9.15,24.18a.6.6,0,0,0,.13.63,86.85,86.85,0,0,1,7.86,9.28l2.84,3.95,0,0,.18.23a.61.61,0,0,0,.94,0,.79.79,0,0,0,.11-.14l.86-1.06c.09-.11.21-.26.39-.46a.62.62,0,0,0,0-.73,64.87,64.87,0,0,0-9.56-11.44.57.57,0,0,1-.15-.64L795,147.16a.61.61,0,0,0,0-.42l-1.11-3A.6.6,0,0,0,792.75,143.69Zm2.8,7.18L789.43,167a.59.59,0,0,0,.11.61,4.77,4.77,0,0,1,.35.44l.06.07,2.51,2.82a60.93,60.93,0,0,1,5.21,6.95l.17.25a.6.6,0,0,0,1,0,56.3,56.3,0,0,1,5.51-5.73.61.61,0,0,0,.16-.65l-7.8-20.95A.6.6,0,0,0,795.55,150.87Zm34.32,9.34q1.33,5.25,6.18,14a.6.6,0,0,1-.6.89l-.37,0-5-.44c-2.28-.21-3.93-.31-5-.31l-.41,0a.6.6,0,0,0-.54.81l10,26.58a.53.53,0,0,0,.16.23l12.53,11.07a.6.6,0,0,1-.4,1.06h-34a.59.59,0,0,1-.49-.26l-.33-.47a.6.6,0,0,1,.49-.95H842.3a.6.6,0,0,0,.4-1.05l-9.86-8.71a.66.66,0,0,1-.17-.24L821.92,174a.6.6,0,0,1,.44-.8,19.65,19.65,0,0,1,4.16-.4,53.75,53.75,0,0,1,6.28.41.61.61,0,0,0,.6-.89l-.18-.33a57.14,57.14,0,0,1-5-11.77.61.61,0,0,1,.9-.67l.45.28A.61.61,0,0,1,829.87,160.21Z"/><path class="cls-3" d="M306.54,240.1a33.36,33.36,0,0,1,1,6.7,31.68,31.68,0,0,0-5-2.05,15.57,15.57,0,0,0-1.81-.39,12.2,12.2,0,0,0-1.88-.15,74.79,74.79,0,0,1-2.37,9.83,55.87,55.87,0,0,1,10,.93l-4.23,2.86-2-.11c-.71,0-2.49.18-5.35.54a23.21,23.21,0,0,1-6.63,8.28q-4.86,4.14-9.79,4.14a17.26,17.26,0,0,1-7.23-1.77,14.59,14.59,0,0,1-6.14-5,46.12,46.12,0,0,0,2.08-5,21.3,21.3,0,0,0,3.24,2.07,30.57,30.57,0,0,0,3.92,1.68A23,23,0,0,0,281.6,264a17.45,17.45,0,0,0,4.94-.81,11.26,11.26,0,0,0,3.93-1.84,9.69,9.69,0,0,0,2.22-2.89q-4.28.38-8.4.38l4.51-4.68c2-.13,3.76-.19,5.14-.19a89.29,89.29,0,0,0,1.67-10.11,25.65,25.65,0,0,1,6.66-5.54A7.48,7.48,0,0,1,306.54,240.1Z"/><path class="cls-3" d="M338.64,247l-.93,1.59a3.75,3.75,0,0,1,2.1,1.67,5.78,5.78,0,0,1,.82,3.18,8.13,8.13,0,0,1-.7,3.39,6.8,6.8,0,0,1-1.53,2.26,13.51,13.51,0,0,1-2.84,1.73,8.61,8.61,0,0,0-1,.64,7,7,0,0,1-.86.57,10.71,10.71,0,0,1-6.11-1.89,5.42,5.42,0,0,1-2.75-4.62c0-3,2.09-5.93,6.28-8.7,1.92.17,3.54.25,4.87.25C337,247.05,337.85,247,338.64,247Zm-7.38,2.78a6.08,6.08,0,0,0-.92,3.16c0,3,1.52,4.79,4.56,5.44a13.72,13.72,0,0,0,.43-3.37,5,5,0,0,0-1.25-3.81A5.66,5.66,0,0,0,331.26,249.76Z"/><path class="cls-3" d="M360.94,251.67l.12-5,5.22.48.29,4c.28-.78.52-1.54.74-2.28a5.69,5.69,0,0,1,.57-1.41,2.25,2.25,0,0,1,1-.84,3.4,3.4,0,0,1,1.62-.36,6.62,6.62,0,0,1,2.35.5l-.56,2.18c-.29,1.19-.65,2.49-1.09,3.93a13.55,13.55,0,0,0-2.79-1.57,9.76,9.76,0,0,0-1.63,2.74c.07,1,.14,1.83.22,2.39a8.3,8.3,0,0,0,2.74.55q-.72,2-1.77,4.44c-2.39,0-3.85-.14-4.39-.43a6,6,0,0,1-1.76-1.41c-.62-.68-.93-2-.93-3.86C360.87,254.51,360.9,253.15,360.94,251.67Z"/><path class="cls-3" d="M443.07,242.63a5.3,5.3,0,0,1,.45-.83c.34-.61.63-1.14.86-1.58a36.25,36.25,0,0,1,10.91-1.84,13.4,13.4,0,0,1,3.08.34,4.9,4.9,0,0,1,2.27,1.16,5.26,5.26,0,0,1,1.34,2.37,21.73,21.73,0,0,1,.78,3.84l.39,3.1,1.16,8a60.88,60.88,0,0,0,1.44,7.61,58.42,58.42,0,0,0-7.76,2.68c0-1.29-.18-4.82-.55-10.56-2.15-.14-3.6-.21-4.37-.21s-1.92.09-3.26.16l-3.78.22q-6.54,7.2-10.55,9.55a15.24,15.24,0,0,1-7.59,2.36,9,9,0,0,1-5.65-1.72q-2.22-1.71-2.22-3.57,0-2.1,2.33-4.68a20.85,20.85,0,0,1,6.07-4.49,19.68,19.68,0,0,1,9-1.91c.83,0,1.61,0,2.37.07s1.6.12,2.54.22l2.89.36,3.45-5q1-1.49,4.07-6.77c-1.36,0-2.86.15-4.5.35S444.85,242.31,443.07,242.63Zm-14.46,15.15a6.61,6.61,0,0,0-1.34,3.8,3.25,3.25,0,0,0,1.33,2.89,5.38,5.38,0,0,0,3.14.91,27.78,27.78,0,0,0,3.83-.36c.05-.1.72-.84,2-2.2s2.94-3.23,5.32-6Q434.4,257.16,428.61,257.78Zm19.66-4.07c.88.11,2.12.31,3.73.6s3.35.63,5.23,1a107,107,0,0,0-2.13-11.65A98.13,98.13,0,0,1,448.27,253.71Z"/><path class="cls-3" d="M486.42,240.45l3.37-.87,2.55-.68-.72,12.7-.26,5c.85.61,1.81,1.22,2.87,1.84v.12a29.19,29.19,0,0,0-3.44,3.77,5.67,5.67,0,0,1-3.54-2.06,6.81,6.81,0,0,1-1.17-4.19c0-.7,0-1.85.1-3.44S486.33,247,486.42,240.45Z"/><path class="cls-3" d="M514.7,240.45l3.37-.87,2.55-.68-.73,12.7-.25,5a33.44,33.44,0,0,0,2.87,1.84v.12a28.48,28.48,0,0,0-3.44,3.77,5.67,5.67,0,0,1-3.55-2.06,6.81,6.81,0,0,1-1.17-4.19c0-.7,0-1.85.11-3.44S514.6,247,514.7,240.45Z"/><path class="cls-3" d="M579,246.78l3.49-5.68a44.79,44.79,0,0,1,14.63-2.75,18.6,18.6,0,0,1,6.14.89,12.53,12.53,0,0,1,3.79,1.95,3,3,0,0,1,1.22,2.18q0,2.24-3.23,5.52a24.4,24.4,0,0,1-2.49,2.15,35.88,35.88,0,0,1-3,2c-1.1.66-2.36,1.33-3.76,2,.82-.08,1.46-.12,1.93-.12a16.69,16.69,0,0,1,4,.55,18.28,18.28,0,0,1,3.49,1.24,4.78,4.78,0,0,1,1.91,1.48,3.75,3.75,0,0,1,.52,2.1,9.52,9.52,0,0,1-1.5,5.05,10.6,10.6,0,0,1-3.7,3.71,8.52,8.52,0,0,1-4.27,1.28,22.4,22.4,0,0,1-6.83-1.45l-.69-2.63,2.79-5.11a5.2,5.2,0,0,0,2.92,3.25,10.07,10.07,0,0,0,4.62,1.22,19.18,19.18,0,0,0,2.42-.21,7.44,7.44,0,0,0-3.87-4.85,13.49,13.49,0,0,0-6.26-1.55c-1.08,0-2.49.09-4.24.26q-.63,3.4-4.44,6.44c-2.52,2-4.82,3-6.9,3q-3.67,0-7.33-7.59a48.73,48.73,0,0,1,1.48-7.28,25.36,25.36,0,0,0,6.14,6.76,10.15,10.15,0,0,0,5.6,2.26,3,3,0,0,0,1.93-.59,2.72,2.72,0,0,0,1-1.37q.19-.81.93-6.17l1.25-9.7A62.41,62.41,0,0,0,579,246.78Zm12.7-1.88-2.12,11.43c1.17-.69,3-1.85,5.47-3.48.76-.5,1.73-1.13,2.9-1.87s2.15-1.34,2.92-1.79c1.4-.82,2.5-1.51,3.31-2.08a7.07,7.07,0,0,0-1.73-1.55,7.62,7.62,0,0,0-2.27-.78,16.08,16.08,0,0,0-3.47-.32A30.72,30.72,0,0,0,591.68,244.9Z"/><path class="cls-3" d="M628.23,247.59a31.56,31.56,0,0,0,6.21-1.38,14.59,14.59,0,0,0-.48,2.36c-.1.71-.24,1.51-.41,2.41a14,14,0,0,0-.26,2.48,5.48,5.48,0,0,0,.43,2.16,25.89,25.89,0,0,0,1.21,2.62,13.64,13.64,0,0,0,2.29-2.19c0-.33,0-1,0-1.92a40.28,40.28,0,0,0-.43-7,7.1,7.1,0,0,0,1.24.12,33.3,33.3,0,0,0,5-.44q-.16,2.64-.16,6.47,0,2.22.16,7.47c-.66.11-1.94.36-3.84.74l-2.38.46a15.9,15.9,0,0,0,.31-3,42.86,42.86,0,0,0-4.4,2.73,14.17,14.17,0,0,1-3.05-1,3.51,3.51,0,0,1-1.29-1.51,7.3,7.3,0,0,1-.62-3.34A68.76,68.76,0,0,1,628.23,247.59Z"/><path class="cls-3" d="M668.61,246.49c.07,0,1,.06,3,.2s4,.19,6,.19c0,.05-.14.48-.38,1.29a12.29,12.29,0,0,0-.62,3,32.65,32.65,0,0,0-7.83-1.29q.82,2.44,5.4,2.45a17.37,17.37,0,0,1,3.31.2,2.38,2.38,0,0,1,1.36.86,3,3,0,0,1,.48,1.84,6.11,6.11,0,0,1-.55,2.53,6.68,6.68,0,0,1-1.36,2,7,7,0,0,1-2.79,1.39,13.65,13.65,0,0,1-4.16.62,11.93,11.93,0,0,1-6.32-1.54,24,24,0,0,1,.95-2.53,15,15,0,0,0,6.07,1.17,5.93,5.93,0,0,0,3.31-1,3.86,3.86,0,0,0-2.29-.74h-.62l-1,0a10.58,10.58,0,0,1-5.17-1,3.64,3.64,0,0,1-1.77-3.47,5.08,5.08,0,0,1,1.07-3.29A13.24,13.24,0,0,1,668.61,246.49Z"/><path class="cls-3" d="M698.36,251.43l.47-2.16a30.72,30.72,0,0,0,7.93-2.68v3l0,1.29c0,.17,0,.33,0,.46,0,.38,0,.9,0,1.57,0,.3,0,.54,0,.72l.12,3c0,.66.11,2.12.26,4.41-2.36.41-4.42.72-6.16.93a63.94,63.94,0,0,0,.24-6.46l-.07-4.32a4,4,0,0,1-1.55.3A6.59,6.59,0,0,1,698.36,251.43Zm5.1-12.69a3.12,3.12,0,0,1,2.23.9,3.17,3.17,0,0,1,0,4.49,3.07,3.07,0,0,1-2.23.93,3,3,0,0,1-2.22-.93,3,3,0,0,1-.93-2.22,3.06,3.06,0,0,1,.93-2.24A3,3,0,0,1,703.46,238.74Z"/><path class="cls-3" d="M732,247.05l1.66-.5v2.26c.32-.2.89-.53,1.72-1,.27-.15.54-.31.8-.48l1.47-.88a11.35,11.35,0,0,1,2.44.55,3.31,3.31,0,0,1,1.34,1,3.78,3.78,0,0,1,.71,1.29,8,8,0,0,1,.17,1.95A27.4,27.4,0,0,1,742,255a33.7,33.7,0,0,0-.36,4l-3.18,2-.49.32a10.75,10.75,0,0,1-2.25,1.29,38.45,38.45,0,0,0,1-7.46,11.22,11.22,0,0,0-1.43-5.72c0,.05-.24.25-.62.62l-.31.35-.7.7.08,9.9a27.91,27.91,0,0,0-5.83.82c0-.59,0-1,0-1.18,0-.72,0-1.14,0-1.28v-.39c0-.49,0-.82,0-1V254c0-2.05,0-3.9-.11-5.53l.52-.16.66-.21.79-.28Z"/><path class="cls-3" d="M762.59,249.82l3.87-3.28,4.63.34a5.05,5.05,0,0,1,3.17,1.12,2.92,2.92,0,0,1,1,2.1,8,8,0,0,1-.13,1.29c-.13.62-.26,1.54-.4,2.77a13.75,13.75,0,0,1-3.58,1.43,14.29,14.29,0,0,1-2.38.21,7.8,7.8,0,0,1-1.06-.09c1.12,1.4,2.22,2.1,3.29,2.1a4.84,4.84,0,0,0,3.4-1.43h.14q-1.72,5.37-6.37,5.37a6.86,6.86,0,0,1-3.49-.67,4.32,4.32,0,0,1-1.65-1.94,12.58,12.58,0,0,1-.59-4.7l.09-2.95Zm5.2.18-.45,4.2c1,0,2.07,0,3.22-.11,0-.75,0-1.12,0-1.08a2.87,2.87,0,0,0-.77-2.2A3,3,0,0,0,767.79,250Z"/><path class="cls-3" d="M799.66,246.49c.07,0,1.06.06,3,.2s4,.19,6,.19c0,.05-.13.48-.38,1.29a12.15,12.15,0,0,0-.61,3,32.86,32.86,0,0,0-7.84-1.29c.55,1.63,2.36,2.45,5.41,2.45a17.25,17.25,0,0,1,3.3.2,2.35,2.35,0,0,1,1.36.86,3,3,0,0,1,.48,1.84,6.11,6.11,0,0,1-.55,2.53,6.68,6.68,0,0,1-1.36,2,6.9,6.9,0,0,1-2.78,1.39,13.67,13.67,0,0,1-4.17.62,12,12,0,0,1-6.32-1.54,26.47,26.47,0,0,1,1-2.53,15.09,15.09,0,0,0,6.08,1.17,5.92,5.92,0,0,0,3.3-1,3.84,3.84,0,0,0-2.29-.74h-.62l-1,0a10.51,10.51,0,0,1-5.16-1,3.64,3.64,0,0,1-1.77-3.47,5.07,5.07,0,0,1,1.06-3.29A13.24,13.24,0,0,1,799.66,246.49Z"/><path class="cls-3" d="M835.27,246.49c.07,0,1.05.06,3,.2s4,.19,6,.19c0,.05-.14.48-.38,1.29a12.29,12.29,0,0,0-.62,3,32.65,32.65,0,0,0-7.83-1.29q.82,2.44,5.41,2.45a17.32,17.32,0,0,1,3.3.2,2.38,2.38,0,0,1,1.36.86,3,3,0,0,1,.48,1.84,6.11,6.11,0,0,1-.55,2.53,6.68,6.68,0,0,1-1.36,2,7,7,0,0,1-2.79,1.39,13.6,13.6,0,0,1-4.16.62,11.93,11.93,0,0,1-6.32-1.54,24,24,0,0,1,1-2.53,15,15,0,0,0,6.07,1.17,5.93,5.93,0,0,0,3.31-1,3.84,3.84,0,0,0-2.29-.74h-.62l-1,0a10.51,10.51,0,0,1-5.16-1,3.63,3.63,0,0,1-1.78-3.47,5.08,5.08,0,0,1,1.07-3.29A13.24,13.24,0,0,1,835.27,246.49Z"/></g></g></svg>