<svg width="30" height="30" viewBox="0 0 30 30" fill="none" xmlns="http://www.w3.org/2000/svg">
<g id="Asset 1 4" clip-path="url(#clip0_29_172)">
<g id="Layer 2">
<g id="Graphic Elements">
<path id="Vector" d="M30 14.9996C29.9999 12.1326 29.1782 9.3257 27.6322 6.91126C26.0861 4.49682 23.8806 2.57602 21.2766 1.37635C18.6727 0.176675 15.7795 -0.25162 12.9396 0.142187C10.0998 0.535994 7.4323 1.73541 5.25307 3.59838C3.07383 5.46135 1.47413 7.90983 0.643435 10.6539C-0.187262 13.3979 -0.214163 16.3225 0.565917 19.0813C1.346 21.8402 2.90038 24.3177 5.04498 26.2204C7.18958 28.1232 9.83456 29.3714 12.6667 29.8174V19.333H8.84667V14.9996H12.6667V11.6952C12.6667 7.93519 14.8889 5.85964 18.3222 5.85964C19.4471 5.87538 20.5694 5.97342 21.68 6.15297V9.84408H19.7889C17.9244 9.84408 17.3444 10.9996 17.3444 12.1863V14.9996H21.5044L20.8378 19.333H17.3444V29.8152C20.8722 29.2565 24.085 27.4575 26.4048 24.7416C28.7247 22.0258 29.9995 18.5714 30 14.9996Z" fill="#4676ED"/>
<path id="Vector_2" d="M20.8378 19.3327L21.5045 14.9972H17.3445V12.186C17.3445 10.9994 17.9245 9.84382 19.7889 9.84382H21.68V6.15271C20.5694 5.97315 19.4471 5.87511 18.3222 5.85938C14.8889 5.85937 12.6667 7.93493 12.6667 11.6949V14.9994H8.84668V19.3327H12.6667V29.8149C14.2202 30.0579 15.802 30.0579 17.3556 29.8149V19.3327H20.8378Z" fill="white"/>
</g>
</g>
</g>
<defs>
<clipPath id="clip0_29_172">
<rect width="30" height="30" fill="white"/>
</clipPath>
</defs>
</svg>
