<svg xmlns="http://www.w3.org/2000/svg" viewBox="0 0 582.54 511.9"><defs><style>.cls-1{fill:#fff;}.cls-2{fill:#fff;}.cls-3{fill:#fff;}</style></defs><title>Asset 5</title><g id="Layer_2" data-name="Layer 2"><g id="Layer_1-2" data-name="Layer 1"><path class="cls-1" d="M309.41,88.87a32.81,32.81,0,0,1-14.88,3.28c0-1.8.35-1.85,2.76-1.78A36.92,36.92,0,0,0,309.41,88.87Z"/><path class="cls-1" d="M406.28,121.23a5.2,5.2,0,0,1-.72,0l-6,0C402.08,121.21,404.38,121.21,406.28,121.23Z"/><path class="cls-1" d="M408,118.87c0,1.45-.38,2.14-1.5,2.34,1.41-.36,1.48-5.17,1.52-6.66C408,116,408,117.42,408,118.87Z"/><path class="cls-1" d="M399.56,121.23c-7,0-15.49.17-20.82.18a8.47,8.47,0,0,1,1.8-.17C386.88,121.23,393.22,121.2,399.56,121.23Z"/><path class="cls-1" d="M408,114.43c0-.68,0-1.35,0-2C408,113.06,408,113.74,408,114.43Z"/><path class="cls-1" d="M284.45,110.61l.1.11v-.06Z"/><path class="cls-1" d="M284.55,110.66v.06l-.1-.11Z"/><path class="cls-1" d="M294.49,29c0-7.52-.08-15-.06-22.55,0-2,.26-4,.43-6.44,3.37.25,6.76.35,10.11.77q3,.38,5.94.89a114.17,114.17,0,0,1,55.77,26.1q4.9,4.2,9.5,9a114.78,114.78,0,0,1,26,43.34,112.13,112.13,0,0,1,5.75,32.28h0c0,.68,0,1.35,0,2v.12c0,1.49-.11,6.3-1.52,6.66h-.18c-1.9,0-4.2,0-6.7,0h0c-6.34,0-12.68,0-19,0a8.47,8.47,0,0,0-1.8.17h0c-3.37,0-6-1-6,2.43a105.34,105.34,0,0,1-.33,10.82,17,17,0,0,1-2.25,6.6c-4.7,7.75-12.62,9.31-19.07,7.58-7.4-2-12.35-8.86-12.31-16.9v-.28l-1.08-.56a8.61,8.61,0,0,0-2.06-.77,4.35,4.35,0,0,0-4.36,1.34,8.78,8.78,0,0,0-1.39,2,120.64,120.64,0,0,1-6,10.93,19.58,19.58,0,0,1-5.78,5.58c-8.9,5.47-17.86,2.9-23.55-2.27-6.55-5.95-8-15.6-3.72-23.83.18-.35.36-.71.55-1.06,1-2,2.06-3.94,3.07-5.92.22-.42.43-.84.64-1.27,1.36-2.69,1.16-4.88-.61-6.55,0-1.45,0-2.89,0-4.34l.06-11.86c0-.34,0-.64,0-.9a32.81,32.81,0,0,0,14.88-3.28h0a27.64,27.64,0,0,0,11.17-6.65c8.9-8.63,11.56-19.24,7.77-30.91-.24-.74-.5-1.45-.78-2.15s-.54-1.31-.84-1.93a28.71,28.71,0,0,0-3.15-5.18h0c-4.39-5.73-10.77-9.29-18.83-10.63-.55-.09-1.1-.16-1.66-.22C301,31,298.79,31,296.64,31,295.13,31,294.48,30.6,294.49,29Z"/><path class="cls-1" d="M407.92,202.19V140c0-1.13.05-2.28-.06-3.4a5.43,5.43,0,0,0-7.63-4.68,17.76,17.76,0,0,0-3,1.67l-50.18,32.19q-7.44-7.74-14.76-15.57c-1.08-1.16-1.79-1.19-3-.12-2.69,2.34-5.33,4.92-8.43,6.57-9.37,5-18.93,4.7-27.82-1.06S279.73,141,280.43,130.19a25.55,25.55,0,0,1,2.21-8.94,26.79,26.79,0,0,1,1.93-3.57q0-8.91,0-17.81h0l-.1-.11a.31.31,0,0,1,.1,0V85.74c0-3.58,1.91-5.46,5.5-5.49,3.22,0,6.45.18,9.65-.06a29.82,29.82,0,0,0,7.76-1.45,19.34,19.34,0,0,0,12.42-19.3c0-.33,0-.67-.08-1C319,50,312.06,42.59,303.6,41.5c-4.17-.54-8.44-.32-12.66-.38-4.74-.08-6.41-1.7-6.41-6.4,0-10.67,0-21.34.06-32,0-1.74-.34-2.44-2.35-2.29a116.06,116.06,0,0,0-77.85,38.4,116.78,116.78,0,0,0-28,56.46l-1.4,9.47c-.14,4.79-.26,9.58-.44,14.36-.06,1.67.64,2.18,2.25,2.16,4.93-.08,9.86,0,14.78,0,2.61,0,2.66,0,2.59-2.64-.13-5.5.45-10.89,3-15.84C202.61,92.14,211.28,86.2,223.29,86c12.21-.19,21.27,5.39,27,16.23a25.63,25.63,0,0,1,2,5.12h0l-3.06,2.89c-2.69,2.56-5.22,2.53-7.8-.14-2.21-2.28-4.34-4.63-6.58-6.89-6.6-6.66-17.3-7.41-24.09-1.74-7.93,6.63-9.51,17-3.55,25,2.41,3.24,5.45,6,8.15,9,2.13,2.38,2,4.93-.34,7.14l-6.25,5.94c-.38-.24-.76-.48-1.13-.73-7.9-5.06-15.78-10.19-23.74-15.15-4.86-3-9.16-.58-9.31,5.11v1.24c0,42,0,84-.07,126,0,3.95,1.56,6.25,4.72,8.26q36.82,23.44,73.54,47a4.69,4.69,0,0,1,2.39,4.57c-.11,5.77.06,11.55-.08,17.33-.06,2.71,1.07,3.81,3.66,3.64.31,0,.62,0,.93,0h63.15c4.28,0,4.51-.26,4.52-4.6,0-5.36.14-10.73-.06-16.09-.09-2.54.94-3.91,3-5.2,24.43-15.6,48.8-31.3,73.25-46.88A8.53,8.53,0,0,0,408,265C407.85,244.09,407.92,223.14,407.92,202.19ZM284.55,110.66v.06l-.1-.11Zm-13.23,71.6c13.43-.43,25.8,2.14,36.95,8.42q-6.3,4-12.58,8.09a7.37,7.37,0,0,1-8.87,0L261,182.11Q266.08,182.43,271.32,182.26Zm29.8,108.21c-1.76,9-3.79,17.94-5.72,26.91-.46,2.14-1.18,3.72-4,3.76s-3.81-1.45-4.27-3.79q-3.75-19.1-7.45-38.21a31.15,31.15,0,0,1-.24-4.15h23.92C302.61,280.35,302.1,285.46,301.12,290.47Zm78.39-31.06c-16.3,10.31-32.48,20.82-48.77,31.16a8.24,8.24,0,0,0-4.2,7.67c.08,6.4-.06,12.8.06,19.19,0,2.6-.71,3.75-3.51,3.67-5.57-.16-11.14,0-16.71-.06-.89,0-1.78-.16-3-.28,1.25-5.5,2.61-10.66,3.58-15.9,1.56-8.41,2.93-16.85,4.25-25.31.75-4.76.62-4.78,5.51-4.79h7.73c8.51.05,14.81-3.9,18.4-11.35a18.72,18.72,0,0,0-2.29-20.72c-5.27-6.64-12.38-9-20.74-7s-14.39,10-14.94,19.84c-.15,2.77-.37,5.54-.51,8.32-.1,1.9-1,2.73-2.92,2.71-6.81-.07-13.62-.05-20.43,0-1.75,0-2.73-.62-2.83-2.45-.15-2.88-.39-5.75-.55-8.63-.7-12.08-9.32-20.68-20.51-20.46a19.71,19.71,0,0,0-19.25,20.1,19.51,19.51,0,0,0,19.32,19.65c3,0,6,0,9,0,4.42,0,4.33,0,5.06,4.24q2.83,16.46,5.83,32.88c.54,2.9,1.39,5.74,2.18,8.9-1.34.11-2.24.26-3.14.26-5.57,0-11.14-.07-16.71.06-2.54,0-3.5-.85-3.45-3.41.11-6.29-.08-12.59.08-18.88.09-3.93-1.45-6.52-4.79-8.62-16.4-10.36-32.67-20.91-49-31.32a6.07,6.07,0,0,1-3.1-5.61c0-23.94,0-47.87,0-71.81,0-5.35,3.95-7.31,8.69-4.29q21.91,14,43.77,28.07c11.71,7.52,23.47,15,35.13,22.61,3.19,2.09,5.93,2,9.11,0q38.49-24.84,77.06-49.53l1.57-1c2-1.32,4-2.18,6.37-1s2.58,3.47,2.58,5.83c0,23.42-.06,46.85,0,70.27A7.43,7.43,0,0,1,379.51,259.41Zm-66.32-1c.18-1.43.29-2.86.44-4.3a11.4,11.4,0,0,1,22.7-.65,11.4,11.4,0,0,1-9,12.56,58.66,58.66,0,0,1-7,.67C312.21,266.53,312.22,266.53,313.19,258.44Zm-46.84,8.11c-1.33-.1-2.67,0-4,0a1.49,1.49,0,0,1,0,.21A59.49,59.49,0,0,1,255,266a11.36,11.36,0,0,1-8.77-12.44A11.54,11.54,0,0,1,257,243.45a11.37,11.37,0,0,1,11.73,9.73c.5,3.35.5,6.77.81,10.15C269.79,265.78,268.73,266.73,266.35,266.55Z"/><path class="cls-2" d="M87.3,371.29l-7.79,7.9a.33.33,0,0,0-.1.25v63.41a.35.35,0,0,0,.11.26l6.86,6.53a.36.36,0,0,1-.25.62H59.49a.36.36,0,0,1-.23-.63L67,443.11a.32.32,0,0,0,.13-.27V403.31a.36.36,0,0,0-.7-.13L47.54,455.11a.35.35,0,0,1-.34.24H41.77a.36.36,0,0,1-.35-.26l-.28-.95a.36.36,0,0,1,.35-.46h4.66a.37.37,0,0,0,.34-.24L67.1,396a.25.25,0,0,0,0-.12v-7.37a.36.36,0,0,0-.7-.12L44.13,450a.35.35,0,0,1-.34.24H40a.37.37,0,0,1-.34-.24L23.41,402.21a.37.37,0,0,0-.71.12V433q0,6.57.87,9.3a16.21,16.21,0,0,0,4.08,6l0,0,5.11,6.48a.36.36,0,0,1-.29.58H1a.35.35,0,0,1-.3-.16l-.64-.95a.36.36,0,0,1,.3-.56H29.47a.37.37,0,0,0,.3-.57L28,450.42a.37.37,0,0,0-.3-.16h-26a.36.36,0,0,1-.16-.68h0q6.89-3.78,9.08-7.66t2.21-12.25V378.52a.36.36,0,0,0-.12-.27l-7.41-7a.36.36,0,0,1,.25-.62H35.72a.36.36,0,0,1,.24.63l-8.12,7.34a.38.38,0,0,0-.1.38l17.17,50.79a.36.36,0,0,0,.68,0l1.81-4.38a.31.31,0,0,0,0-.25L31.66,379.54a.37.37,0,0,1,.13-.41l7.69-5.69a.36.36,0,0,1,.44,0l.71.58a.36.36,0,0,1,0,.58l-7.14,5a.36.36,0,0,0-.13.42l14.34,42a.36.36,0,0,0,.68,0L64,379a.39.39,0,0,0-.08-.37L57,371.28a.36.36,0,0,1,.26-.61H87A.37.37,0,0,1,87.3,371.29ZM18.38,387.41a.36.36,0,0,0-.7.12v42.39q0,10.23,1.95,14.08,1.82,3.56,7.19,5.31a.36.36,0,0,0,.42-.54l0,0a.36.36,0,0,0-.1-.11q-6-4.22-6-12.12V395.3a.5.5,0,0,0,0-.12ZM91,375.79l-6.47,4.64a.35.35,0,0,0-.15.29v62.21a.36.36,0,0,0,.09.24l10.18,11.58a.36.36,0,0,1-.28.6H62.44a.36.36,0,0,1-.32-.19l-.49-1a.36.36,0,0,1,.32-.53H90.58a.36.36,0,0,0,.27-.6l-8-9a.36.36,0,0,1-.09-.24V379.67a.36.36,0,0,1,.15-.3l6.94-4.76a.38.38,0,0,1,.44,0l.72.59A.36.36,0,0,1,91,375.79Z"/><path class="cls-2" d="M153.84,371.67l-5.33,6.05a.59.59,0,0,0-.11.61l9.8,26.06a.6.6,0,0,0,.85.31l1.42-.77a.6.6,0,0,0,.27-.74l-8.87-23.62A.59.59,0,0,1,152,379l6.05-7a.62.62,0,0,1,.69-.16l.45.19a.6.6,0,0,1,.22,1l-5.49,6.36a.61.61,0,0,0-.11.61l8.28,22a.6.6,0,0,0,.94.26,1.6,1.6,0,0,0,.21-.18l2.05-1.74c.67-.54,1.21-1,1.62-1.36a.6.6,0,0,1,1,.3A43.35,43.35,0,0,0,172,409.91a.6.6,0,0,1-.56.89c-.64,0-1.13-.05-1.49-.05q-5.44,0-8.19,1.58a.62.62,0,0,0-.26.74l11,29.84a.63.63,0,0,0,.19.26l7.78,6a.6.6,0,0,1-.37,1.07H152.22a.6.6,0,0,1-.39-1.06l7-5.86a.6.6,0,0,0,.17-.67l-6.4-16.84a.6.6,0,0,0-1-.2,68.3,68.3,0,0,0-9.6,12,.58.58,0,0,1-.66.27l-.2-.05a.6.6,0,0,1-.36-.91,81.88,81.88,0,0,1,10.47-12.87l0,0,.26-.31a.61.61,0,0,0,.08-.62l-.71-1.65a.61.61,0,0,0-.95-.22,55,55,0,0,0-11.09,12.91.6.6,0,0,1-1,0l-.6-1Q134,428.05,129,421.48h0a.59.59,0,0,0-1,.15q-4.38,10-4.38,16.35a14.81,14.81,0,0,0,1.33,6.61,61.09,61.09,0,0,0,6.42,9l.6.75a.61.61,0,0,1-.48,1H99.5a.6.6,0,0,1-.48-.24l-.35-.47a.6.6,0,0,1,.48-1h29.12a.61.61,0,0,0,.47-1l-.26-.32a40.32,40.32,0,0,1-5.37-7.72,15.32,15.32,0,0,1-1.27-6.48q0-6.24,5-18.5a.6.6,0,0,0-.12-.64l-1.81-1.89a.6.6,0,0,0-1,.2q-.7,1.88-1.7,5l-2,6.32a28.14,28.14,0,0,0-1.68,8.44,12.5,12.5,0,0,0,1.18,5.77,30.87,30.87,0,0,0,5,6.27l.15.15a.6.6,0,0,1-.43,1H97.06a.59.59,0,0,1-.3-1.11,36.51,36.51,0,0,0,12-11.23Q114,430.17,119.05,414l.14-.48a.61.61,0,0,0-.2-.64,16.74,16.74,0,0,0-8.22-3.05.6.6,0,0,1-.43-.92,44.65,44.65,0,0,0,4.43-8.92.61.61,0,0,1,1-.24c.18.17.31.29.37.36l2.79,2.6a30.63,30.63,0,0,0,2.79,2.33.6.6,0,0,0,.92-.25l.66-1.61a.59.59,0,0,0-.18-.69l-.4-.34q-3.1-2.73-5.21-4.4l-.1-.08a.6.6,0,0,1-.12-.83l.31-.42a.61.61,0,0,1,.83-.15,47.78,47.78,0,0,1,5.17,4.09.61.61,0,0,0,1-.24l8-22a.61.61,0,0,0-.12-.62l-5.39-5.79a.6.6,0,0,1,.44-1h25.89A.6.6,0,0,1,153.84,371.67ZM136,384.91l-9.15,24.18a.59.59,0,0,0,.13.63,84.93,84.93,0,0,1,7.86,9.28l2.84,3.94,0,.05.18.22a.61.61,0,0,0,.94,0,.93.93,0,0,0,.1-.15l.87-1c.08-.11.21-.27.38-.47a.6.6,0,0,0,0-.73,64.07,64.07,0,0,0-9.57-11.43.63.63,0,0,1-.15-.65l7.72-20.39a.61.61,0,0,0,0-.42l-1.11-3A.6.6,0,0,0,136,384.91Zm2.8,7.17-6.13,16.15a.63.63,0,0,0,.11.62,4.11,4.11,0,0,1,.36.43l.05.07,2.52,2.82a63.12,63.12,0,0,1,5.21,6.95l.17.25a.6.6,0,0,0,1,.05,55.32,55.32,0,0,1,5.51-5.73.59.59,0,0,0,.16-.66L140,392.09A.6.6,0,0,0,138.83,392.08Zm34.31,9.35q1.35,5.24,6.19,14a.6.6,0,0,1-.6.89l-.37,0-5-.43c-2.27-.21-3.93-.31-5-.31H168a.6.6,0,0,0-.53.81l10,26.58a.63.63,0,0,0,.16.24l12.53,11.07a.6.6,0,0,1-.4,1.05h-34a.62.62,0,0,1-.5-.25l-.33-.47a.61.61,0,0,1,.5-.95h30.18a.6.6,0,0,0,.4-1.06l-9.86-8.71a.51.51,0,0,1-.16-.24L165.2,415.24a.61.61,0,0,1,.44-.81,20.25,20.25,0,0,1,4.16-.4,53.45,53.45,0,0,1,6.27.41.6.6,0,0,0,.61-.88l-.18-.33a56.82,56.82,0,0,1-5-11.77.6.6,0,0,1,.9-.67l.45.27A.65.65,0,0,1,173.14,401.43Z"/><path class="cls-2" d="M196.57,370.67h25.94a.64.64,0,0,1,.45,1.1l-7.12,7a.63.63,0,0,0-.2.46v26a.64.64,0,0,0,.55.63c.64.09,1.34.17,2.11.23a.64.64,0,0,0,.69-.63v-25.6a.66.66,0,0,1,.19-.46l6.15-6.08a.64.64,0,0,1,.87,0l.29.26a.63.63,0,0,1,0,.93l-5.71,5.67a.6.6,0,0,0-.19.45v25a.64.64,0,0,0,.58.64l1.46.13q4.78.44,9.25.44a89.12,89.12,0,0,0,10.54-.55.65.65,0,0,0,.56-.64V377.9a.61.61,0,0,0-.21-.47l-6.15-5.65a.64.64,0,0,1,.44-1.11h25.43a.64.64,0,0,1,.44,1.1l-7.22,7a.63.63,0,0,0-.2.46v64.09a.66.66,0,0,0,.22.48l6,5.39a.64.64,0,0,1-.43,1.11H236.24a.64.64,0,0,1-.42-1.12l7-5.94a.64.64,0,0,0,.22-.49V417.5a.64.64,0,0,0-.78-.62,46.23,46.23,0,0,1-9.95,1.06,106.39,106.39,0,0,1-10.8-.56h-.18a.64.64,0,0,0-.68.64v25.32a.66.66,0,0,0,.15.42l9.16,10.54a.64.64,0,0,1-.48,1.06H199a.66.66,0,0,1-.46-.19l-.38-.4a.64.64,0,0,1,.46-1.08H226a.64.64,0,0,0,.47-1.07l-7.29-8a.65.65,0,0,1-.17-.43V416.58a.65.65,0,0,1,.69-.64l1.11.08q8.19.62,11.85.62a30.73,30.73,0,0,0,9.93-1.46.65.65,0,0,0,.43-.61v-1a.64.64,0,0,0-.73-.63,95.64,95.64,0,0,1-12.85.76c-2.78,0-4.8-.06-6.08-.18l-6.25-.56h0c-.15,0-.39-.05-.72-.08a.64.64,0,0,0-.69.64v29.79a.67.67,0,0,0,.23.49l6.38,5.38a.64.64,0,0,1-.42,1.12h-25.2a.64.64,0,0,1-.42-1.12L203,443.2a.64.64,0,0,0,.22-.48V416.55a.65.65,0,0,0-.68-.64,9.78,9.78,0,0,0-7.32,3.68.65.65,0,0,1-.78.18l-.09,0a.64.64,0,0,1-.2-1,13.06,13.06,0,0,1,8.49-4.32.65.65,0,0,0,.58-.63V412.7a.65.65,0,0,0-.68-.64,12.92,12.92,0,0,0-9.95,4.82.65.65,0,0,1-.85.12h0a.66.66,0,0,1-.23-.79q3.57-8.22,11.2-9.95a.64.64,0,0,0,.51-.62V378.52a.64.64,0,0,0-.21-.47l-6.89-6.27A.64.64,0,0,1,196.57,370.67Zm69.72,3.87-5.72,5.56a.61.61,0,0,0-.2.46v62.76a.67.67,0,0,0,.16.43l9.21,10.54a.64.64,0,0,1-.48,1.06H238.75a.63.63,0,0,1-.47-.2l-.36-.4a.64.64,0,0,1,.47-1.07h27.32a.64.64,0,0,0,.48-1.07L259,444.49a.67.67,0,0,1-.16-.42V379.93a.64.64,0,0,1,.19-.45l6.18-6.13a.64.64,0,0,1,1,.07l.21.27A.64.64,0,0,1,266.29,374.54Z"/><path class="cls-2" d="M274.44,370.67h27.25a.48.48,0,0,1,.34.82L294.27,379a.45.45,0,0,0-.15.34V445a.48.48,0,0,0,.48.48h0l2.19.18h.1a.47.47,0,0,0,.48-.47V380a.48.48,0,0,1,.14-.34l6.14-6.2a.47.47,0,0,1,.74.08l.35.54a.48.48,0,0,1-.07.59l-5.61,5.73a.48.48,0,0,0-.14.34v64.5a.48.48,0,0,0,.44.48c1.7.14,3.33.21,4.9.21q9.85,0,14.92-4.37,4.61-4,6.46-12.71a.47.47,0,0,1,.91,0q5.21,14.58,10.65,20.68a.47.47,0,0,1-.36.79H274.55a.47.47,0,0,1-.3-.84l7.35-6a.49.49,0,0,0,.18-.37V378.76a.46.46,0,0,0-.16-.35l-7.51-6.91A.48.48,0,0,1,274.44,370.67ZM343.93,450l-2.53,5a.47.47,0,0,1-.42.26H276.71a.47.47,0,0,1-.35-.15l-.67-.72a.48.48,0,0,1,.35-.8h64.24a.49.49,0,0,0,.44-.28l1.54-3.36a.46.46,0,0,0-.06-.5,70.59,70.59,0,0,1-10.73-18.45l-.25-.68,1.79.67a.48.48,0,0,1,.27.27l.36.86a91.27,91.27,0,0,0,9.93,16.94l.3.38A.48.48,0,0,1,343.93,450Z"/><path class="cls-2" d="M412.25,372.05l-9.08,7.26a.77.77,0,0,0-.3.6v39.71a122.23,122.23,0,0,1-.71,15.88,18.86,18.86,0,0,1-2.82,7.94q-5.34,7.95-20.72,7.94-16.26,0-22.71-7.94-5.15-6.27-5.15-24V378.58a.76.76,0,0,0-.25-.57l-6.68-6a.77.77,0,0,1,.52-1.35h25.36a.78.78,0,0,1,.54,1.33l-6.85,6.69a.79.79,0,0,0-.23.56v40.24l.12,9.56q0,9.24,3.85,13.12t13,3.88q10,0,13.83-5.9,3-4.77,3-20.47l.25-39.8a.79.79,0,0,0-.25-.57L389,372a.78.78,0,0,1,.53-1.35h22.22A.77.77,0,0,1,412.25,372.05Zm3.28,3.3-7.6,6.32a.78.78,0,0,0-.28.59v38.16q0,18.93-3,24.7-6.07,11.65-23.76,11.66-15.26,0-23-7.63l.48.24,0,0,2.16,1.23q7.62,4.47,19.6,4.46,17.13,0,22.71-10.79,3-5.83,3-23.45V381.52a.79.79,0,0,1,.29-.6l8.32-6.81a.77.77,0,0,1,1.12.15l0,0A.77.77,0,0,1,415.53,375.35Zm-41.76-.88-5.41,5.46a.78.78,0,0,0-.23.55v45.78l-.06,4.18a.63.63,0,0,0,0,.19l1.86,7.66a.94.94,0,0,0,.1.23,25.84,25.84,0,0,0,5.13,5.43.8.8,0,0,1,.26.43l.07.3q-5.22-2.1-7.2-6.14t-2-12.47v-46.2a.8.8,0,0,1,.24-.56l6.11-5.94a.77.77,0,0,1,1.18.12h0A.77.77,0,0,1,373.77,374.47Z"/><path class="cls-2" d="M421.16,370.67h27.26a.48.48,0,0,1,.33.82L441,379a.45.45,0,0,0-.15.34V445a.49.49,0,0,0,.48.48h0l2.19.18h.1a.47.47,0,0,0,.48-.47V380a.48.48,0,0,1,.14-.34l6.14-6.2a.47.47,0,0,1,.74.08l.35.54a.47.47,0,0,1-.07.59l-5.61,5.73a.48.48,0,0,0-.14.34v64.5a.48.48,0,0,0,.44.48c1.7.14,3.33.21,4.9.21q9.86,0,14.92-4.37,4.6-4,6.46-12.71a.47.47,0,0,1,.91,0q5.2,14.58,10.65,20.68a.47.47,0,0,1-.35.79H421.27a.47.47,0,0,1-.3-.84l7.35-6a.49.49,0,0,0,.18-.37V378.76a.46.46,0,0,0-.16-.35l-7.51-6.91A.48.48,0,0,1,421.16,370.67ZM490.65,450l-2.53,5a.47.47,0,0,1-.42.26H423.43a.47.47,0,0,1-.35-.15l-.67-.72a.48.48,0,0,1,.35-.8H487a.49.49,0,0,0,.44-.28L489,450a.48.48,0,0,0-.07-.5,70.59,70.59,0,0,1-10.73-18.45l-.25-.68,1.79.67a.5.5,0,0,1,.28.27l.35.86a91.27,91.27,0,0,0,9.93,16.94l.3.38A.48.48,0,0,1,490.65,450Z"/><path class="cls-2" d="M546.05,371.67l-5.33,6.05a.62.62,0,0,0-.12.61l9.81,26.06a.6.6,0,0,0,.85.31l1.42-.77a.61.61,0,0,0,.27-.74l-8.87-23.62a.59.59,0,0,1,.11-.61l6-7a.62.62,0,0,1,.69-.16l.45.19a.61.61,0,0,1,.22,1l-5.49,6.36a.59.59,0,0,0-.11.61l8.27,22a.61.61,0,0,0,1,.26l.21-.18,2.05-1.74c.67-.54,1.21-1,1.62-1.36a.6.6,0,0,1,1,.3,43,43,0,0,0,4.16,10.65.6.6,0,0,1-.56.89c-.64,0-1.14-.05-1.49-.05q-5.45,0-8.19,1.58a.61.61,0,0,0-.26.74l11,29.84a.55.55,0,0,0,.19.26l7.78,6a.6.6,0,0,1-.37,1.07H544.43a.6.6,0,0,1-.39-1.06l7-5.86a.6.6,0,0,0,.17-.67l-6.4-16.84a.6.6,0,0,0-1-.2,67.84,67.84,0,0,0-9.6,12,.59.59,0,0,1-.66.27l-.21-.05A.61.61,0,0,1,533,437a80.75,80.75,0,0,1,10.47-12.87l0,0,.25-.31a.61.61,0,0,0,.09-.62l-.71-1.65a.61.61,0,0,0-1-.22,55,55,0,0,0-11.09,12.91.61.61,0,0,1-1,0l-.6-1q-3.23-5.15-8.25-11.72h0a.59.59,0,0,0-1,.15q-4.38,10-4.38,16.35a14.81,14.81,0,0,0,1.33,6.61,61.09,61.09,0,0,0,6.42,9c.15.19.35.44.59.76a.59.59,0,0,1-.47,1H491.71a.63.63,0,0,1-.49-.24l-.34-.47a.6.6,0,0,1,.48-1h29.12a.6.6,0,0,0,.47-1l-.26-.33a40.32,40.32,0,0,1-5.37-7.72,15.32,15.32,0,0,1-1.27-6.48q0-6.24,5-18.5a.6.6,0,0,0-.12-.64l-1.81-1.89a.6.6,0,0,0-1,.2q-.71,1.88-1.7,5l-2,6.32a28.39,28.39,0,0,0-1.67,8.44,12.5,12.5,0,0,0,1.18,5.77,30.87,30.87,0,0,0,5,6.27,1.06,1.06,0,0,1,.15.15.6.6,0,0,1-.43,1H489.27a.59.59,0,0,1-.3-1.11,36.51,36.51,0,0,0,12-11.23q5.17-7.76,10.27-23.95l.14-.48a.61.61,0,0,0-.2-.64A16.75,16.75,0,0,0,503,409.8a.6.6,0,0,1-.42-.92A44.46,44.46,0,0,0,507,400a.6.6,0,0,1,1-.23,5.14,5.14,0,0,1,.38.36l2.79,2.6a31.84,31.84,0,0,0,2.78,2.33.61.61,0,0,0,.93-.25l.65-1.61a.6.6,0,0,0-.17-.69l-.4-.34q-3.1-2.73-5.21-4.4l-.1-.08a.6.6,0,0,1-.12-.83l.31-.42a.6.6,0,0,1,.82-.15,46.92,46.92,0,0,1,5.18,4.09.61.61,0,0,0,1-.24l8-22a.6.6,0,0,0-.13-.62l-5.38-5.79a.6.6,0,0,1,.44-1h25.88A.6.6,0,0,1,546.05,371.67Zm-17.81,13.24-9.16,24.18a.6.6,0,0,0,.14.63,84.93,84.93,0,0,1,7.86,9.28l2.83,3.94,0,.05.17.22a.6.6,0,0,0,.94,0,.65.65,0,0,0,.11-.15l.87-1c.08-.11.21-.27.38-.47a.6.6,0,0,0,.05-.73,64.07,64.07,0,0,0-9.57-11.43.61.61,0,0,1-.15-.65l7.72-20.39a.61.61,0,0,0,0-.42l-1.1-3A.6.6,0,0,0,528.24,384.91Zm2.8,7.17-6.13,16.15a.63.63,0,0,0,.11.62,4.11,4.11,0,0,1,.36.43.18.18,0,0,0,0,.07l2.52,2.82a63.12,63.12,0,0,1,5.21,6.95l.16.25a.61.61,0,0,0,1,.05,55.32,55.32,0,0,1,5.51-5.73A.61.61,0,0,0,540,413l-7.8-20.94A.6.6,0,0,0,531,392.08Zm34.31,9.35q1.33,5.24,6.19,14a.6.6,0,0,1-.6.89l-.37,0-5-.43c-2.27-.21-3.93-.31-5-.31h-.42a.59.59,0,0,0-.53.81l10,26.58a.81.81,0,0,0,.17.24l12.53,11.07a.6.6,0,0,1-.4,1.05h-34a.6.6,0,0,1-.49-.25l-.33-.47a.6.6,0,0,1,.49-.95h30.19a.6.6,0,0,0,.4-1.06l-9.86-8.71a.51.51,0,0,1-.16-.24l-10.75-28.44a.6.6,0,0,1,.44-.8A20.22,20.22,0,0,1,562,414a53.48,53.48,0,0,1,6.28.41.59.59,0,0,0,.6-.88l-.18-.33a57.29,57.29,0,0,1-5-11.77.6.6,0,0,1,.89-.67l.45.27A.62.62,0,0,1,565.35,401.43Z"/><path class="cls-3" d="M42,481.32A34.68,34.68,0,0,1,43,488,32.71,32.71,0,0,0,38,486a14.72,14.72,0,0,0-1.81-.39,13.41,13.41,0,0,0-1.87-.14,75,75,0,0,1-2.38,9.83,57.06,57.06,0,0,1,10,.92L37.72,499l-2-.1c-.71,0-2.5.18-5.35.53a23.16,23.16,0,0,1-6.63,8.28q-4.87,4.14-9.79,4.15a17.22,17.22,0,0,1-7.23-1.77,14.7,14.7,0,0,1-6.15-5,45,45,0,0,0,2.09-5,21.52,21.52,0,0,0,3.23,2.08,28.84,28.84,0,0,0,3.93,1.67,22.87,22.87,0,0,0,7.26,1.41,17.77,17.77,0,0,0,4.94-.8A11.19,11.19,0,0,0,26,502.6a9.26,9.26,0,0,0,2.22-2.89c-2.84.26-5.64.38-8.4.38l4.51-4.68c2-.13,3.76-.19,5.15-.19a91.38,91.38,0,0,0,1.67-10.1,25.65,25.65,0,0,1,6.66-5.54A7.51,7.51,0,0,1,42,481.32Z"/><path class="cls-3" d="M74.12,488.2l-.93,1.58a3.79,3.79,0,0,1,2.1,1.67,5.8,5.8,0,0,1,.83,3.19,8.21,8.21,0,0,1-.71,3.39,6.75,6.75,0,0,1-1.53,2.25A13.61,13.61,0,0,1,71,502a6.9,6.9,0,0,0-1,.64,6.38,6.38,0,0,1-.86.56,10.69,10.69,0,0,1-6.11-1.89,5.39,5.39,0,0,1-2.76-4.61q0-4.55,6.29-8.71c1.91.17,3.53.26,4.87.26C72.44,488.27,73.33,488.25,74.12,488.2ZM66.74,491a6.1,6.1,0,0,0-.91,3.17q0,4.46,4.56,5.44a13.8,13.8,0,0,0,.43-3.38,5,5,0,0,0-1.26-3.8A5.59,5.59,0,0,0,66.74,491Z"/><path class="cls-3" d="M96.43,492.88l.12-5,5.21.49.3,4c.27-.78.52-1.54.74-2.27a5.78,5.78,0,0,1,.56-1.41,2.31,2.31,0,0,1,1-.84,3.29,3.29,0,0,1,1.62-.37,6.67,6.67,0,0,1,2.36.5l-.57,2.19c-.29,1.18-.65,2.49-1.08,3.92a13.59,13.59,0,0,0-2.79-1.56,9.71,9.71,0,0,0-1.64,2.73c.07,1,.15,1.83.23,2.4a8.46,8.46,0,0,0,2.73.55q-.72,2-1.77,4.44a12.93,12.93,0,0,1-4.39-.43,6.24,6.24,0,0,1-1.75-1.42c-.62-.67-.93-2-.93-3.85C96.36,495.72,96.38,494.36,96.43,492.88Z"/><path class="cls-3" d="M178.55,483.85A6.87,6.87,0,0,1,179,483c.35-.62.63-1.15.86-1.58a36.33,36.33,0,0,1,10.91-1.85,13.33,13.33,0,0,1,3.08.35,4.93,4.93,0,0,1,2.28,1.15,5.25,5.25,0,0,1,1.34,2.38,21.49,21.49,0,0,1,.77,3.83l.4,3.1,1.15,8a60.57,60.57,0,0,0,1.45,7.61,58.36,58.36,0,0,0-7.77,2.69q0-1.95-.55-10.57c-2.14-.14-3.6-.21-4.37-.21l-3.26.17-3.78.21Q175,505.52,171,507.85a15.18,15.18,0,0,1-7.59,2.36,8.88,8.88,0,0,1-5.64-1.72c-1.48-1.14-2.22-2.32-2.22-3.56q0-2.1,2.32-4.68a20.92,20.92,0,0,1,6.08-4.5,19.64,19.64,0,0,1,9-1.91c.83,0,1.62,0,2.37.07s1.6.12,2.55.23,1.91.22,2.88.36l3.46-5q1-1.49,4.06-6.76c-1.35,0-2.85.15-4.5.34S180.33,483.52,178.55,483.85ZM164.1,499a6.54,6.54,0,0,0-1.34,3.8,3.25,3.25,0,0,0,1.32,2.89,5.39,5.39,0,0,0,3.15.92,27.66,27.66,0,0,0,3.82-.36c.06-.11.73-.84,2-2.21s2.95-3.22,5.32-5.95Q169.88,498.37,164.1,499Zm19.65-4.06c.88.1,2.13.3,3.74.59s3.35.64,5.23,1a106.69,106.69,0,0,0-2.14-11.65A99.26,99.26,0,0,1,183.75,494.93Z"/><path class="cls-3" d="M221.91,481.66l3.37-.86,2.55-.69-.73,12.7-.25,5a33.44,33.44,0,0,0,2.87,1.84v.12a29.12,29.12,0,0,0-3.44,3.77,5.66,5.66,0,0,1-3.55-2,6.83,6.83,0,0,1-1.17-4.19c0-.7,0-1.85.1-3.45S221.81,488.25,221.91,481.66Z"/><path class="cls-3" d="M250.18,481.66l3.38-.86,2.54-.69-.72,12.7-.26,5c.85.61,1.81,1.22,2.88,1.84v.12a29.24,29.24,0,0,0-3.45,3.77,5.66,5.66,0,0,1-3.54-2,6.83,6.83,0,0,1-1.17-4.19c0-.7,0-1.85.1-3.45S250.09,488.25,250.18,481.66Z"/><path class="cls-3" d="M314.46,488l3.5-5.68a45,45,0,0,1,14.62-2.75,18.93,18.93,0,0,1,6.15.89,12.33,12.33,0,0,1,3.78,1.95,3,3,0,0,1,1.23,2.19q0,2.24-3.24,5.52a22.37,22.37,0,0,1-2.49,2.14,33.44,33.44,0,0,1-3,2c-1.11.66-2.36,1.33-3.76,2q1.21-.12,1.92-.12a16.09,16.09,0,0,1,4,.55,18.4,18.4,0,0,1,3.5,1.24,4.77,4.77,0,0,1,1.91,1.48,3.84,3.84,0,0,1,.51,2.1,9.52,9.52,0,0,1-1.5,5,10.46,10.46,0,0,1-3.7,3.72,8.47,8.47,0,0,1-4.26,1.27,22.39,22.39,0,0,1-6.84-1.44l-.68-2.64,2.78-5.11a5.19,5.19,0,0,0,2.93,3.25,9.93,9.93,0,0,0,4.61,1.23,19.16,19.16,0,0,0,2.43-.21A7.47,7.47,0,0,0,335,501.8a13.4,13.4,0,0,0-6.27-1.55c-1.08,0-2.49.08-4.23.25-.43,2.28-1.91,4.42-4.44,6.44s-4.83,3-6.9,3q-3.69,0-7.33-7.59a47.71,47.71,0,0,1,1.48-7.28,25.25,25.25,0,0,0,6.14,6.77A10.17,10.17,0,0,0,319,504.1a3,3,0,0,0,1.93-.58,2.71,2.71,0,0,0,1-1.38q.21-.81.93-6.16l1.26-9.71A63.53,63.53,0,0,0,314.46,488Zm12.7-1.87-2.11,11.42q1.76-1,5.47-3.47c.76-.51,1.72-1.13,2.9-1.88s2.15-1.34,2.92-1.79c1.4-.81,2.5-1.51,3.3-2.08a7.27,7.27,0,0,0-1.72-1.55,7.38,7.38,0,0,0-2.27-.77,16.19,16.19,0,0,0-3.48-.33A30.89,30.89,0,0,0,327.16,486.12Z"/><path class="cls-3" d="M363.72,488.8a31.86,31.86,0,0,0,6.21-1.38,12.82,12.82,0,0,0-.48,2.36c-.11.71-.24,1.52-.42,2.41a14,14,0,0,0-.25,2.48,5.53,5.53,0,0,0,.43,2.17,25.54,25.54,0,0,0,1.2,2.61,12.9,12.9,0,0,0,2.29-2.18c0-.33,0-1,0-1.93a41.18,41.18,0,0,0-.43-7,7,7,0,0,0,1.24.12,32,32,0,0,0,5-.45c-.1,1.77-.15,3.92-.15,6.47q0,2.22.15,7.47c-.65.12-1.93.36-3.84.74l-2.37.46a16.6,16.6,0,0,0,.31-3,45.25,45.25,0,0,0-4.41,2.74,15.45,15.45,0,0,1-3.05-1,3.69,3.69,0,0,1-1.29-1.52,7.28,7.28,0,0,1-.62-3.33A68.77,68.77,0,0,1,363.72,488.8Z"/><path class="cls-3" d="M404.09,487.7l3,.21c2,.12,4,.19,6,.19,0,0-.13.47-.38,1.29a12.07,12.07,0,0,0-.61,3,32.86,32.86,0,0,0-7.84-1.29q.84,2.44,5.41,2.44a17,17,0,0,1,3.3.21,2.25,2.25,0,0,1,1.36.86,3,3,0,0,1,.48,1.84,6.14,6.14,0,0,1-.55,2.53,6.76,6.76,0,0,1-1.36,2,6.89,6.89,0,0,1-2.78,1.4,14,14,0,0,1-4.17.62,11.9,11.9,0,0,1-6.31-1.55,24.47,24.47,0,0,1,.94-2.53,15.09,15.09,0,0,0,6.08,1.17,5.85,5.85,0,0,0,3.3-1,3.91,3.91,0,0,0-2.29-.74l-.62,0-1,0a10.52,10.52,0,0,1-5.16-1,3.66,3.66,0,0,1-1.77-3.48,5.09,5.09,0,0,1,1.06-3.29A13.24,13.24,0,0,1,404.09,487.7Z"/><path class="cls-3" d="M433.85,492.64l.46-2.15a30.84,30.84,0,0,0,7.94-2.69v3l-.06,1.29c0,.18,0,.33,0,.47,0,.38,0,.9,0,1.56,0,.3,0,.54,0,.73l.12,3c0,.65.11,2.12.25,4.4q-3.54.62-6.16.93a63.71,63.71,0,0,0,.24-6.45l-.06-4.32a4.23,4.23,0,0,1-1.55.29A6.43,6.43,0,0,1,433.85,492.64ZM438.94,480a3.13,3.13,0,0,1,2.24.89,3.17,3.17,0,0,1,0,4.49,3.09,3.09,0,0,1-2.24.93,3,3,0,0,1-2.22-.93,3.16,3.16,0,0,1,2.22-5.38Z"/><path class="cls-3" d="M467.53,488.27l1.65-.5V490l1.72-1a8.3,8.3,0,0,0,.81-.49l1.46-.87a11.62,11.62,0,0,1,2.45.55,3.2,3.2,0,0,1,1.34,1,3.57,3.57,0,0,1,.7,1.29,7.35,7.35,0,0,1,.18,1.94,28.9,28.9,0,0,1-.31,3.82,33.88,33.88,0,0,0-.36,4l-3.19,2-.48.33a12.38,12.38,0,0,1-2.25,1.29,39.27,39.27,0,0,0,1-7.47,11.08,11.08,0,0,0-1.43-5.71l-.61.62-.31.34-.71.71.09,9.89a28,28,0,0,0-5.84.83c0-.6,0-1,0-1.19,0-.71,0-1.14,0-1.27v-.4c0-.48-.05-.82-.05-1V495.2c0-2.05,0-3.89-.1-5.52l.51-.16.67-.22.78-.27Z"/><path class="cls-3" d="M498.08,491l3.87-3.29,4.63.35a5,5,0,0,1,3.16,1.11,2.93,2.93,0,0,1,1,2.1,8.15,8.15,0,0,1-.14,1.3c-.13.61-.26,1.54-.4,2.77a13.5,13.5,0,0,1-3.58,1.42,14.08,14.08,0,0,1-2.37.21,7.93,7.93,0,0,1-1.07-.09c1.13,1.4,2.22,2.1,3.29,2.1a4.85,4.85,0,0,0,3.41-1.42H510q-1.73,5.37-6.37,5.37a6.89,6.89,0,0,1-3.5-.68,4.22,4.22,0,0,1-1.65-1.94,12.61,12.61,0,0,1-.58-4.7l.08-2.94Zm5.19.17-.44,4.2c1,0,2.07,0,3.21-.1,0-.76,0-1.12,0-1.09a2.89,2.89,0,0,0-.78-2.2A3,3,0,0,0,503.27,491.21Z"/><path class="cls-3" d="M535.15,487.7l3,.21c2,.12,4,.19,6,.19l-.38,1.29a12.2,12.2,0,0,0-.62,3,32.65,32.65,0,0,0-7.83-1.29q.82,2.44,5.4,2.44a17.13,17.13,0,0,1,3.31.21,2.31,2.31,0,0,1,1.36.86,3,3,0,0,1,.48,1.84,6.14,6.14,0,0,1-.55,2.53,6.76,6.76,0,0,1-1.36,2,7,7,0,0,1-2.79,1.4,14,14,0,0,1-4.16.62,11.93,11.93,0,0,1-6.32-1.55,24.86,24.86,0,0,1,1-2.53,15,15,0,0,0,6.07,1.17,5.88,5.88,0,0,0,3.31-1,3.93,3.93,0,0,0-2.29-.74l-.62,0-1,0a10.59,10.59,0,0,1-5.17-1,3.66,3.66,0,0,1-1.77-3.48,5.1,5.1,0,0,1,1.07-3.29A13.24,13.24,0,0,1,535.15,487.7Z"/><path class="cls-3" d="M570.75,487.7l3,.21c2,.12,4,.19,6,.19,0,0-.14.47-.38,1.29a12.2,12.2,0,0,0-.62,3,32.75,32.75,0,0,0-7.83-1.29q.82,2.44,5.4,2.44a17.13,17.13,0,0,1,3.31.21,2.26,2.26,0,0,1,1.35.86,2.94,2.94,0,0,1,.49,1.84,6.3,6.3,0,0,1-.55,2.53,5.53,5.53,0,0,1-4.15,3.39,14,14,0,0,1-4.17.62,11.9,11.9,0,0,1-6.31-1.55,24.47,24.47,0,0,1,.94-2.53,15.09,15.09,0,0,0,6.08,1.17,5.85,5.85,0,0,0,3.3-1,3.91,3.91,0,0,0-2.29-.74l-.62,0-1,0a10.52,10.52,0,0,1-5.16-1,3.66,3.66,0,0,1-1.77-3.48,5,5,0,0,1,1.07-3.29A13.17,13.17,0,0,1,570.75,487.7Z"/></g></g></svg>